<mxfile host="app.diagrams.net" agent="Mozilla/5.0 (X11; Linux x86_64) AppleWebKit/537.36 (KHTML, like Gecko) Chrome/128.0.0.0 Safari/537.36" version="24.8.3">
  <diagram name="Page-1" id="FLPyzNdCS5SrpL3AEMhr">
    <mxGraphModel dx="723" dy="445" grid="1" gridSize="10" guides="1" tooltips="1" connect="1" arrows="1" fold="1" page="1" pageScale="1" pageWidth="850" pageHeight="1100" math="1" shadow="0">
      <root>
        <mxCell id="0" />
        <mxCell id="1" parent="0" />
        <mxCell id="dQlW-KFLKV-VQPzgSJSX-3" value="" style="endArrow=classic;html=1;rounded=0;exitX=0.993;exitY=0.167;exitDx=0;exitDy=0;exitPerimeter=0;strokeColor=#E60073;strokeWidth=2;" edge="1" parent="1">
          <mxGeometry width="50" height="50" relative="1" as="geometry">
            <mxPoint x="509.1600000000001" y="300.03999999999996" as="sourcePoint" />
            <mxPoint x="830" y="300" as="targetPoint" />
          </mxGeometry>
        </mxCell>
        <mxCell id="dQlW-KFLKV-VQPzgSJSX-4" value="" style="endArrow=classic;html=1;rounded=0;strokeColor=#009900;strokeWidth=2;" edge="1" parent="1">
          <mxGeometry width="50" height="50" relative="1" as="geometry">
            <mxPoint x="720" y="360" as="sourcePoint" />
            <mxPoint x="830" y="360" as="targetPoint" />
          </mxGeometry>
        </mxCell>
        <mxCell id="dQlW-KFLKV-VQPzgSJSX-12" value="&lt;font style=&quot;font-size: 18px;&quot;&gt;$$In_1$$&lt;/font&gt;" style="text;html=1;align=center;verticalAlign=middle;whiteSpace=wrap;rounded=0;" vertex="1" parent="1">
          <mxGeometry x="460" y="276" width="60" height="34" as="geometry" />
        </mxCell>
        <mxCell id="dQlW-KFLKV-VQPzgSJSX-13" value="&lt;font style=&quot;font-size: 18px;&quot;&gt;$$In_2$$&lt;/font&gt;" style="text;html=1;align=center;verticalAlign=middle;whiteSpace=wrap;rounded=0;" vertex="1" parent="1">
          <mxGeometry x="460" y="345" width="60" height="30" as="geometry" />
        </mxCell>
        <mxCell id="dQlW-KFLKV-VQPzgSJSX-20" value="" style="endArrow=none;html=1;rounded=0;strokeWidth=2;strokeColor=#E60073;" edge="1" parent="1" target="dQlW-KFLKV-VQPzgSJSX-53">
          <mxGeometry width="50" height="50" relative="1" as="geometry">
            <mxPoint x="600" y="300" as="sourcePoint" />
            <mxPoint x="750" y="480" as="targetPoint" />
          </mxGeometry>
        </mxCell>
        <mxCell id="dQlW-KFLKV-VQPzgSJSX-28" value="&lt;font style=&quot;font-size: 18px;&quot;&gt;$$Out_1 = In_1 + W_N^m In_2$$&lt;/font&gt;" style="text;html=1;align=center;verticalAlign=middle;whiteSpace=wrap;rounded=0;" vertex="1" parent="1">
          <mxGeometry x="837" y="288" width="203" height="30" as="geometry" />
        </mxCell>
        <mxCell id="dQlW-KFLKV-VQPzgSJSX-52" value="&lt;font style=&quot;font-size: 23px;&quot;&gt;+&lt;/font&gt;" style="ellipse;whiteSpace=wrap;html=1;aspect=fixed;gradientColor=none;fillColor=#7EA6E0;" vertex="1" parent="1">
          <mxGeometry x="748" y="290" width="20" height="20" as="geometry" />
        </mxCell>
        <mxCell id="dQlW-KFLKV-VQPzgSJSX-53" value="&lt;font style=&quot;font-size: 23px;&quot;&gt;+&lt;/font&gt;" style="ellipse;whiteSpace=wrap;html=1;aspect=fixed;gradientColor=none;fillColor=#7EA6E0;" vertex="1" parent="1">
          <mxGeometry x="748" y="350" width="20" height="20" as="geometry" />
        </mxCell>
        <mxCell id="dQlW-KFLKV-VQPzgSJSX-60" value="" style="endArrow=none;html=1;rounded=0;exitX=0.999;exitY=0.314;exitDx=0;exitDy=0;exitPerimeter=0;strokeColor=#009900;strokeWidth=2;endFill=0;" edge="1" parent="1" source="dQlW-KFLKV-VQPzgSJSX-64">
          <mxGeometry width="50" height="50" relative="1" as="geometry">
            <mxPoint x="509.84" y="359" as="sourcePoint" />
            <mxPoint x="680" y="360" as="targetPoint" />
          </mxGeometry>
        </mxCell>
        <mxCell id="dQlW-KFLKV-VQPzgSJSX-62" value="" style="endArrow=none;html=1;rounded=0;strokeWidth=2;strokeColor=#CC6600;entryX=0;entryY=0.5;entryDx=0;entryDy=0;" edge="1" parent="1" target="dQlW-KFLKV-VQPzgSJSX-52">
          <mxGeometry width="50" height="50" relative="1" as="geometry">
            <mxPoint x="600" y="360" as="sourcePoint" />
            <mxPoint x="702" y="319.66499999999996" as="targetPoint" />
          </mxGeometry>
        </mxCell>
        <mxCell id="dQlW-KFLKV-VQPzgSJSX-63" value="&lt;font style=&quot;font-size: 18px;&quot;&gt;$$Out_2 = In_1 - W_N^{m} In_2$$&lt;/font&gt;" style="text;html=1;align=center;verticalAlign=middle;whiteSpace=wrap;rounded=0;" vertex="1" parent="1">
          <mxGeometry x="860" y="344" width="203" height="30" as="geometry" />
        </mxCell>
        <mxCell id="dQlW-KFLKV-VQPzgSJSX-65" value="&lt;font style=&quot;background-color: rgb(51, 255, 51);&quot; color=&quot;#ff0000&quot;&gt;$$-1$$&lt;/font&gt;" style="text;html=1;align=center;verticalAlign=middle;whiteSpace=wrap;rounded=0;" vertex="1" parent="1">
          <mxGeometry x="650" y="352.34" width="90" height="13.33" as="geometry" />
        </mxCell>
        <mxCell id="dQlW-KFLKV-VQPzgSJSX-67" value="" style="endArrow=none;html=1;rounded=0;exitX=0.993;exitY=0.167;exitDx=0;exitDy=0;exitPerimeter=0;strokeColor=#009900;strokeWidth=2;endFill=0;entryX=0;entryY=0.25;entryDx=0;entryDy=0;" edge="1" parent="1" target="dQlW-KFLKV-VQPzgSJSX-64">
          <mxGeometry width="50" height="50" relative="1" as="geometry">
            <mxPoint x="509.84" y="359" as="sourcePoint" />
            <mxPoint x="680" y="360" as="targetPoint" />
          </mxGeometry>
        </mxCell>
        <mxCell id="dQlW-KFLKV-VQPzgSJSX-64" value="&lt;font style=&quot;background-color: rgb(51, 255, 51);&quot; color=&quot;#ff0000&quot;&gt;$$W_N^{m}$$&lt;/font&gt;" style="text;html=1;align=center;verticalAlign=middle;whiteSpace=wrap;rounded=0;" vertex="1" parent="1">
          <mxGeometry x="550" y="356" width="20" height="13.33" as="geometry" />
        </mxCell>
      </root>
    </mxGraphModel>
  </diagram>
</mxfile>
